/* XPM */
static char * gdrcoin32_xpm[] = {
"32 32 151 2",
"  	c None",
". 	c #383838",
"+ 	c #3D3D3D",
"@ 	c #3A3A3A",
"# 	c #313131",
"$ 	c #333333",
"% 	c #3B3B3B",
"& 	c #505050",
"* 	c #585858",
"= 	c #5F5F5F",
"- 	c #737373",
"; 	c #6C6C6C",
"> 	c #676767",
", 	c #424242",
"' 	c #3C3C3C",
") 	c #5B5B5B",
"! 	c #7B7B7B",
"~ 	c #747474",
"{ 	c #6B6B6B",
"] 	c #7E7E7E",
"^ 	c #6F6F6F",
"/ 	c #959595",
"( 	c #818181",
"_ 	c #848484",
": 	c #656565",
"< 	c #555555",
"[ 	c #626262",
"} 	c #3F3F3F",
"| 	c #535353",
"1 	c #363636",
"2 	c #4A4A4A",
"3 	c #434343",
"4 	c #404040",
"5 	c #4F4F4F",
"6 	c #5A5A5A",
"7 	c #6A6A6A",
"8 	c #454545",
"9 	c #7C7C7C",
"0 	c #858585",
"a 	c #6D6D6D",
"b 	c #606060",
"c 	c #3E3E3E",
"d 	c #4B4B4B",
"e 	c #565656",
"f 	c #484848",
"g 	c #4D4D4D",
"h 	c #5E5E5E",
"i 	c #4E4E4E",
"j 	c #787878",
"k 	c #8B8B8B",
"l 	c #7D7D7D",
"m 	c #707070",
"n 	c #6E6E6E",
"o 	c #545454",
"p 	c #646464",
"q 	c #575757",
"r 	c #595959",
"s 	c #686868",
"t 	c #919191",
"u 	c #949494",
"v 	c #767676",
"w 	c #727272",
"x 	c #5C5C5C",
"y 	c #5D5D5D",
"z 	c #777777",
"A 	c #8D8D8D",
"B 	c #B5B5B5",
"C 	c #474747",
"D 	c #696969",
"E 	c #616161",
"F 	c #636363",
"G 	c #666666",
"H 	c #868686",
"I 	c #797979",
"J 	c #A1A1A1",
"K 	c #373737",
"L 	c #8F8F8F",
"M 	c #444444",
"N 	c #8E8E8E",
"O 	c #8C8C8C",
"P 	c #838383",
"Q 	c #7F7F7F",
"R 	c #7A7A7A",
"S 	c #A3A3A3",
"T 	c #9F9F9F",
"U 	c #1C1C1C",
"V 	c #969696",
"W 	c #717171",
"X 	c #757575",
"Y 	c #939393",
"Z 	c #808080",
"` 	c #979797",
" .	c #AAAAAA",
"..	c #878787",
"+.	c #A7A7A7",
"@.	c #898989",
"#.	c #C1C1C1",
"$.	c #B8B8B8",
"%.	c #1A1A1A",
"&.	c #9D9D9D",
"*.	c #828282",
"=.	c #9B9B9B",
"-.	c #A8A8A8",
";.	c #9C9C9C",
">.	c #2E2E2E",
",.	c #C4C4C4",
"'.	c #ADADAD",
").	c #171717",
"!.	c #B1B1B1",
"~.	c #4C4C4C",
"{.	c #525252",
"].	c #CCCCCC",
"^.	c #BBBBBB",
"/.	c #888888",
"(.	c #B6B6B6",
"_.	c #414141",
":.	c #C3C3C3",
"<.	c #272727",
"[.	c #353535",
"}.	c #CFCFCF",
"|.	c #202020",
"1.	c #A9A9A9",
"2.	c #8A8A8A",
"3.	c #CECECE",
"4.	c #909090",
"5.	c #191919",
"6.	c #343434",
"7.	c #515151",
"8.	c #989898",
"9.	c #DDDDDD",
"0.	c #9A9A9A",
"a.	c #929292",
"b.	c #464646",
"c.	c #A0A0A0",
"d.	c #282828",
"e.	c #CACACA",
"f.	c #1E1E1E",
"g.	c #B7B7B7",
"h.	c #262626",
"i.	c #1B1B1B",
"j.	c #2D2D2D",
"k.	c #9E9E9E",
"l.	c #B3B3B3",
"m.	c #999999",
"n.	c #1D1D1D",
"o.	c #A2A2A2",
"p.	c #1F1F1F",
"q.	c #2A2A2A",
"r.	c #494949",
"s.	c #242424",
"t.	c #232323",
"                              . + @ #                           ",
"                        $ % & * = - ; = > , '                   ",
"                    # ) ! ~ { ; ] ^ / ( _ : < [ }               ",
"                $ | ! = } 1 2 , 3 4 5 6 7 8 ! 9 0 <             ",
"              8 a b c d e f g & e h e | i 5 j k l m n           ",
"            o ] d + p * h 6 q p { p m r > s % [ / t u j         ",
"          2 v 4 o w * q x x 6 q y : b [ z A z o d 0 k B y       ",
"        C ! $ D p E a = p D s z m F s G - j H H I 4 J ~ z K     ",
"      K L M _ q D G n n N O P 9 I l Q - n R ] w ^ ^ x S T R     ",
"    U E q 4 V 6 z W X Y W Z v n ; j : a I n X y p I s j `  .3   ",
"    ' ..2 +.g b a D u [ ( [ W ] @.v 7 n [ ^ v X s > O i #.$.e   ",
"  %.a m = &.r W ^ V y ] m m n w *.n ~ X v n m l y 3 @ m =.-.;.  ",
"  >.I y N a ^ W X n I : ! m w - Z ^ n ( m Z ~ n R = c G g ,.'.  ",
").g _ , !.~.j v Y p ; I n ] m ; P a ! ^ Q a D : j y y {.b ].^.  ",
"U 7 /.K (.D H ^ H z z I F a { I t 7 ..~ X - w D a : o _.Z ..:.D ",
"<.^ [ [. .a Z W O P w ~ ; R W v @.I v ..; 9 r : n > q q X Q }.W ",
"|.W 7 $ 1.h w - 2.P I m ! - ^ w _ z l z ^ W = G ~ : D R /.P 3.4.",
"5.* ^ 6.J s 9 ~ Y ! 9 9 n ! m - Q 9 X a X - = D z 2 i 7.^ 8.9.n ",
"%._.w 6.0.F G j a.w 0 w P X D I v 9 - I j F k b.v 3 w l ) c.+.  ",
"  d.{ & X _ : _ w 0 ! ~ ~ ! G l _ Y ] ( ~ [ ( 7.P 2 : 1.5 e.<   ",
"  f.x o > y v L Q X ^ - s j l R 9 ( I { h &.d.z > b 7.V h g.    ",
"    . s , /.D Y /.I z W ^ : n Z ] ~ z ^ J h.W H ) Z 9 5 H  .    ",
"    i.q x n p X H ; W { D n v m E Z /.W j.a I : 9 {.k.W l.      ",
"      >.W g m.7 I j m ! m { : X ; r i F I I v 7 ^ H R l S       ",
"      n., ~ [.&.6 7 w n b D ~ ] I - m v j a.*.~ H H ( o.        ",
"        p.5 v K Y n F z - ~ Z R R ! 2.R w @._ - v k /           ",
"            4 : [.X Q b n ] / /.2.v Q ! A l w b R 2...          ",
"              q.r.2 x @.{ r ..P 2.w R j D y D ! ..2.            ",
"                    $ M 7 G 9 u 9 > : x p R W                   ",
"                        s.q.@ | y ] 7._.d                       ",
"                              s.t.d.+                           ",
"                                                                "};
