/* XPM */
static char * gdrcoin16_xpm[] = {
"16 16 74 1",
" 	c None",
".	c #4A4A4A",
"+	c #585858",
"@	c #515151",
"#	c #505050",
"$	c #5E5E5E",
"%	c #5B5B5B",
"&	c #595959",
"*	c #727272",
"=	c #686868",
"-	c #6C6C6C",
";	c #636363",
">	c #555555",
",	c #575757",
"'	c #565656",
")	c #5D5D5D",
"!	c #5A5A5A",
"~	c #666666",
"{	c #888888",
"]	c #7B7B7B",
"^	c #656565",
"/	c #606060",
"(	c #626262",
"_	c #7E7E7E",
":	c #777777",
"<	c #9A9A9A",
"[	c #545454",
"}	c #393939",
"|	c #787878",
"1	c #6E6E6E",
"2	c #7A7A7A",
"3	c #858585",
"4	c #767676",
"5	c #717171",
"6	c #747474",
"7	c #707070",
"8	c #6F6F6F",
"9	c #6B6B6B",
"0	c #808080",
"a	c #737373",
"b	c #7C7C7C",
"c	c #6D6D6D",
"d	c #B6B6B6",
"e	c #2E2E2E",
"f	c #818181",
"g	c #919191",
"h	c #A6A6A6",
"i	c #8F8F8F",
"j	c #838383",
"k	c #6A6A6A",
"l	c #4E4E4E",
"m	c #797979",
"n	c #A7A7A7",
"o	c #424242",
"p	c #4F4F4F",
"q	c #757575",
"r	c #B8B8B8",
"s	c #292929",
"t	c #848484",
"u	c #828282",
"v	c #7D7D7D",
"w	c #939393",
"x	c #303030",
"y	c #4B4B4B",
"z	c #909090",
"A	c #464646",
"B	c #4D4D4D",
"C	c #8B8B8B",
"D	c #868686",
"E	c #323232",
"F	c #494949",
"G	c #676767",
"H	c #535353",
"I	c #616161",
"       .+@#     ",
"     $%&%*=-;   ",
"   %>#,';)!~{]  ",
"  >@^$/^^(_:)<[ ",
" }+|123|45678:< ",
" 90&:6*ab7c:!$d4",
"e~f64548|4|91>gh",
".>i]j41*006~klmn",
"op34{m45_qa;=/0r",
"s&050225jb9=(jt ",
" ';uva-mb**~=kw ",
" x;|2*-5=k(15fn ",
"  y/a19]mbubtz  ",
"   ABq9C0b6-D   ",
"     EFG5HI     ",
"                "};
