/* XPM */
static char * gdrcoin64_xpm[] = {
"64 64 213 2",
"  	c None",
". 	c #2E2E2E",
"+ 	c #323232",
"@ 	c #353535",
"# 	c #3D3D3D",
"$ 	c #3F3F3F",
"% 	c #424242",
"& 	c #484848",
"* 	c #343434",
"= 	c #373737",
"- 	c #303030",
"; 	c #383838",
"> 	c #242424",
", 	c #2C2C2C",
"' 	c #333333",
") 	c #3A3A3A",
"! 	c #505050",
"~ 	c #535353",
"{ 	c #4C4C4C",
"] 	c #444444",
"^ 	c #474747",
"/ 	c #757575",
"( 	c #676767",
"_ 	c #606060",
": 	c #545454",
"< 	c #4D4D4D",
"[ 	c #404040",
"} 	c #272727",
"| 	c #3E3E3E",
"1 	c #2A2A2A",
"2 	c #313131",
"3 	c #494949",
"4 	c #4B4B4B",
"5 	c #515151",
"6 	c #666666",
"7 	c #616161",
"8 	c #7B7B7B",
"9 	c #797979",
"0 	c #737373",
"a 	c #656565",
"b 	c #919191",
"c 	c #727272",
"d 	c #939393",
"e 	c #8D8D8D",
"f 	c #1F1F1F",
"g 	c #2F2F2F",
"h 	c #262626",
"i 	c #4E4E4E",
"j 	c #626262",
"k 	c #696969",
"l 	c #858585",
"m 	c #929292",
"n 	c #AAAAAA",
"o 	c #868686",
"p 	c #808080",
"q 	c #7D7D7D",
"r 	c #A1A1A1",
"s 	c #6F6F6F",
"t 	c #747474",
"u 	c #ACACAC",
"v 	c #363636",
"w 	c #252525",
"x 	c #393939",
"y 	c #707070",
"z 	c #767676",
"A 	c #878787",
"B 	c #787878",
"C 	c #848484",
"D 	c #585858",
"E 	c #6B6B6B",
"F 	c #777777",
"G 	c #818181",
"H 	c #888888",
"I 	c #959595",
"J 	c #8B8B8B",
"K 	c #181818",
"L 	c #434343",
"M 	c #828282",
"N 	c #7C7C7C",
"O 	c #7F7F7F",
"P 	c #555555",
"Q 	c #3C3C3C",
"R 	c #4A4A4A",
"S 	c #595959",
"T 	c #5B5B5B",
"U 	c #6C6C6C",
"V 	c #8A8A8A",
"W 	c #9E9E9E",
"X 	c #6E6E6E",
"Y 	c #454545",
"Z 	c #525252",
"` 	c #5D5D5D",
" .	c #3B3B3B",
"..	c #909090",
"+.	c #414141",
"@.	c #575757",
"#.	c #636363",
"$.	c #9A9A9A",
"%.	c #6D6D6D",
"&.	c #949494",
"*.	c #565656",
"=.	c #6A6A6A",
"-.	c #464646",
";.	c #5C5C5C",
">.	c #838383",
",.	c #9D9D9D",
"'.	c #646464",
").	c #292929",
"!.	c #4F4F4F",
"~.	c #686868",
"{.	c #5F5F5F",
"].	c #BBBBBB",
"^.	c #979797",
"/.	c #5E5E5E",
"(.	c #5A5A5A",
"_.	c #AEAEAE",
":.	c #A8A8A8",
"<.	c #8E8E8E",
"[.	c #2B2B2B",
"}.	c #8F8F8F",
"|.	c #232323",
"1.	c #B9B9B9",
"2.	c #CDCDCD",
"3.	c #717171",
"4.	c #A0A0A0",
"5.	c #B3B3B3",
"6.	c #898989",
"7.	c #B1B1B1",
"8.	c #BEBEBE",
"9.	c #7A7A7A",
"0.	c #ADADAD",
"a.	c #D0D0D0",
"b.	c #1D1D1D",
"c.	c #212121",
"d.	c #282828",
"e.	c #A6A6A6",
"f.	c #A3A3A3",
"g.	c #D6D6D6",
"h.	c #A2A2A2",
"i.	c #7E7E7E",
"j.	c #C3C3C3",
"k.	c #BFBFBF",
"l.	c #999999",
"m.	c #9C9C9C",
"n.	c #A4A4A4",
"o.	c #DADADA",
"p.	c #BABABA",
"q.	c #8C8C8C",
"r.	c #C6C6C6",
"s.	c #9B9B9B",
"t.	c #989898",
"u.	c #B2B2B2",
"v.	c #E1E1E1",
"w.	c #171717",
"x.	c #C2C2C2",
"y.	c #B8B8B8",
"z.	c #CCCCCC",
"A.	c #1C1C1C",
"B.	c #222222",
"C.	c #D5D5D5",
"D.	c #969696",
"E.	c #CBCBCB",
"F.	c #191919",
"G.	c #DBDBDB",
"H.	c #ABABAB",
"I.	c #E6E6E6",
"J.	c #1B1B1B",
"K.	c #F4F4F4",
"L.	c #F2F2F2",
"M.	c #C1C1C1",
"N.	c #E7E7E7",
"O.	c #D4D4D4",
"P.	c #B0B0B0",
"Q.	c #EAEAEA",
"R.	c #DFDFDF",
"S.	c #EFEFEF",
"T.	c #C9C9C9",
"U.	c #B4B4B4",
"V.	c #FFFFFF",
"W.	c #C4C4C4",
"X.	c #C8C8C8",
"Y.	c #9F9F9F",
"Z.	c #1E1E1E",
"`.	c #D2D2D2",
" +	c #E8E8E8",
".+	c #CFCFCF",
"++	c #1A1A1A",
"@+	c #A7A7A7",
"#+	c #AFAFAF",
"$+	c #CACACA",
"%+	c #C5C5C5",
"&+	c #EDEDED",
"*+	c #B7B7B7",
"=+	c #F9F9F9",
"-+	c #C0C0C0",
";+	c #E9E9E9",
">+	c #A5A5A5",
",+	c #BDBDBD",
"'+	c #F6F6F6",
")+	c #E0E0E0",
"!+	c #2D2D2D",
"~+	c #B6B6B6",
"{+	c #D8D8D8",
"]+	c #E2E2E2",
"^+	c #BCBCBC",
"/+	c #DDDDDD",
"(+	c #ECECEC",
"_+	c #D7D7D7",
":+	c #0E0E0E",
"<+	c #D3D3D3",
"[+	c #111111",
"}+	c #B5B5B5",
"|+	c #202020",
"                                                                                                                                ",
"                                                        . + @ # $ % & * = - + @ ;                                               ",
"                                                  > , ' ) ! ~ { ] ^ / ( _ : : ] < [   } |                                       ",
"                                              1 2 3 & 4 5 6 7 7 8 9 0 0 a b c 0 8 d e f g ] ]                                   ",
"                                          h ; i j 8 6 j k / c l m n o p q r s l q t u v 2 j 5 )                                 ",
"                                      w x [ y z 0 A B C s D E 3 a & F [ d e G H H I J K L q M N & ]                             ",
"                                    @ < y N G O 4 P * x [ Q x 3 R S # S 7 x D P P 9 T - U F t V W ( [                           ",
"                                - L j X t t L @ w L v Y Z ` {  . .2 v  .4 _ X : ..+.+.@.#.$.V %.%.&.M &                         ",
"                              v *.j =.c +.-.1 @.% ~ < v 4 Q 4 ^ R { S i ] x L [ & ;.>.i Z ,...C 9 E '.&.D                       ",
"                          , ] X / F & 5 ).*.S ~ c 4 S & !.T ~ ;.j j U '.t ~.7 ( X 2 + x O {.5 ].^.M /.X u '.R                   ",
"                        ).*.F >.9 4 h % & T U ] Z #.! T D @.S '.U s 7 %.=.k 5 (.k /./.Q 1 -._.#.,.:.>./ <._.a R                 ",
"                      [.@.N N k 1 & ) 6 >.` ^ 6 T k @.'.~ (.( ~.k 7 =./.9 %.@.=._ c }.s _ x |.@.$.` 1.J l H 2.;.                ",
"                    } & 3.p 7 Q . P <.6 4 _ i ~ _ c a ` D : #.{.'.X %.'.'.a 7 6 =.B ^.I 8 _ < [.# 4.5.6.M / 7.8.+.              ",
"                  ).^ B 9.(.w ! 0 /.X P j ` k P R ~ ~ T 7 ` 4 *.Z ~ T a *.j j #.G F B M 6.s 8 {.1 # ~ O 0.H z a.,.;             ",
"                b.{ 8 s /.c.. ~ &.;.T 7 j y /.~.D s ~.k =.k z X =.E k #.U ~.a #.3.o N z H G 9.F F +.g ^.c I M {.l . d.          ",
"              > { c M k | [...>.^ (.#.k 0 ~.;./.k 7 U E X ( 3.p F s #.=.a =.a =./.t c O >.o q e.f.9 w 2 ..g.,.( h.M = /.        ",
"            f | O J /  .) k z ~ _ 3.k ( E #.~.y / 0 i.h.j.k.u l...m.7._.G t {.=.k F c C l H q r $.,.M ] R f.n.I F a.>.:         ",
"          f g S W 3.-.[.9.o.i ~ =.a /.U c F 3.z o 8.f.{.) < T S a D ^ 4 k m e t k 3.0 i.i.U j & % Y 3 ^.. c p.l q.n.r.~         ",
"          c.* 9 _ P , 1 s.t.~ ;./ z 9 X / y F u.I 4 %.}.C M t c %.9 / 9 y i D i.q X c %.F z i ( 4 }.! &.i.v {.u.j.I v.a ]       ",
"        w.).S 9 E [  .C x.i P ~.(...8 j 9 G y.~ {.}.q.F / ~ j U '.6 N X j F t %.q t s %.%.t k ;.'.5 p 9.6.j > u ,.z z.p R       ",
"      A.B.-.b }.c $ +.C.s Y _ D 6 B 7 s F 8.% 3.q I { =.z ( i.C b b ( p B ` _ E '.S E / y F p _  .V D.@.( m.L 7 E.j.&.z.(.*.    ",
"      F.@ ;.>.7 x P G.C +.(.~.7 '.3.E / 1.4 X z >.=.U y y 8 N t t o F z %.=.U i.=.k X U z 9.q U . 0.s 3 m F o - u H.6.I.3.{     ",
"    A.J.^ B A a x F K.{.^ Z 6 y t X k r.{ E 3.i.G t 6.U J #.c c y J {.k N t ( X 6 9 a X s c O z ;.Q x X w - M ; t L.W E.M.@.    ",
"    K w ( p 9 P v u 8.5 '.%.F 0 y U t.z ` 9.0 e { O / S s _ 9 ( O 6.T l.s X M B O 9 X B p 7 F p z =.) ' 4 j t.{.[.E.0.s.N.3.    ",
"    w.= j t O & 2 O.k.@.j y 9 X k k P.4 =.>.i.%.8 /.y =.t s / t / o y %.%.T q i.0 E G p ~.y U 9 8 9 4 ~.[ 5  .t  .J Q.m.R.F X   ",
"  J.h { 8 o E [  .S.! T q =.3.k =.$.(.=.'.o R U f.%.F c t y B a s ^.~./ F 8 / }.8 U m ( 3.C j 0 0 9 '.T , i U s < L T.U.O.>.    ",
"  J., /.J F T @ ( V.` { U ( z 0 s W.% z M ! 6.` 9.;.B z z E i.E %.o ( s i.9 c T B J ! 3.z =.{.6 9 / 3.{ X & g J J ) W.g.&.X.    ",
"  w.-.6 o 8 {.+ G 1.$ #.p o t 9.9...~.i.H S M X / X q o 3.c '.'.9 4.k c B 9 0 O p B O 3.( ` c '.U 8 =.*.6., J.F Y.. 4.O.v.7.x   ",
"  Z.-.I b %.$ x W.e.! 9.J A z 3.t./ F 6 N O 0 t.{.!.B F X 7 s 8 A Y.y Z G 3.q %.V =.=.0 %.~.o *.( t E {.s ` A.z `.^ 5  +U..+k   ",
"++B.3 8 m.F !.' j.l S <.H F s c H.: O G Z J a 0 (.e ~ c 8 =.9.B / r / t A @+q X t =.e a 3.>.8 3 /.z E (.+.L ; & i.D (.<.#+$+s   ",
"b.[.& V ~./.v $  +c /.V 8 y ~.t p.S m s D E ^.S l (.F t q c 0 y >.,.` &.z i.$.M j ( N O 4 ( M ] (.M c !./ R $ '.G /.4 %+y.&+i.  ",
"b.x 5 q.3.*.= [ O.{.(.s M b B N *+j J 9 ~.Y.` o ` c q.E 9 7 t O 9 o X o 9 X 3...9 E B 9.@.6 9.~ (.O M S R ~ 6 ` @+L @ y.<.=+G E ",
"Z.h < q.t '.] = a.*.~ ( X F / c P./.l B /.H 0 a s 8 p t t a s 9 / &._ H l 8 #.9 G ^ %.c a =.>.& 7 G 8 ! ... p 0 h.+.! ].-+&+@+  ",
"A.h !.<.t D * x ;+N @.y c 3.c 8 m./ O 6.l 9 #.A >.8 U c s t E c 8 V q B o E I =.0 l 7 N 3 ~.J L a >.C R ,.| >+Y x.U ^ ,+e '+W 9.",
"A.+++.0 U #.& , )+/.;.B %.t t t <.e q A X J C k F t U M T 3.%./ s V j N t / q /.C y i.@.k : l.-.( l ~.2 D a j ( h.@._ v.*+V.9.  ",
"F.A.Q E t X Q ; W.X ;.c C l 9 / N @+( 6.l / A 8 6 X l s F q F / <.0 }.O 8 s '.B c 3./ i.;.a q { X 9 ` ; L % i +.t { T ,+u.Q.0   ",
"  F.!+s 0 %.+.B.p.t S k T c F / t ~+'.N m a F >.q.M 9./ B z e A / V N 9 9./ l a l X t D y D.! ! y / 6 1 >.'.>.X 7 [ ;.R.{+H @.  ",
"  J.> L q {.D . ..e ;./ a y F 8 N ^.q z b 6.9 S p 0 #.H S ( y /.c 0 9.G '.G l z 8 3.3.P S ].v P X 9.~.h D 8 H F C i 3.2.]+;.    ",
"  b.f # 6 D T v 7 A 0 b B s C >.0 c }.9.A >.l %.y P I >.D M M U t @+X h.=.u.! q.z l #.'.t.k 2 6 B B {.;.@ X b 2.C ] <.)+4.v     ",
"    F.= k F S @.^ h.V 8 R X 9.A F 9 H q 6 8 F 6 t D.: F U ;.p p z 0 8 ^+P 6.d e F /.z 7 2.J.# B o A [ v {.H : /+{.v f.(+3       ",
"    ++> Z k i % # n @.5 k ..C o C 0 y N k s 8 / a / /.9.@+J U l 0 <.t J 7 d 7 c T 0 ( .+@ > j p 3.~.^ ; x ~.J X.#.5 u._+[.      ",
"    A.c.) y ` a ) z 8 7 s =.^.^.d 3.3.0 E 9 '.8 =.{.q O {.( N z q U l p B / %.%.P ( ^+*.A.*./ B 8 5 q q a ~ '.H < e h.h.        ",
"      A.1 7 6 7 = !.b U *.s V n.A F F 3.9 s X p ` s 3.X 6 j '.N y s N M O q U E #.a.` :+Y U q q A i 7 4.B j R - { W S.B         ",
"      w.Z.Q '.k /. ...q a M <.o <.I G 8 N / s ( 8 t {.{.y 9 p h.&.G z 7 E 3.i.0 <+R [+< 0 }.V e '.| S t.p d s =.0 ].u.          ",
"        A.d.! /./ | D m c D B q J G 3.X y / U E t ` U ( 3.X z #.P 6 U X T t }+f.} K Z 3.3.p N / _ M $ k Y.P.N ( 3.{+<.          ",
"        K ++4 T =.5 | q.l 5 #.9 9 <.( y %.3.U U c j 3.y i.8 q =.a E C Y.U...x ).x 6 s c F 9 ` ! T m.z 3 N ^.N =.u W.%.          ",
"          ++|.& / s s ^ h.l (.0 %.l F k j F z 9 %.3.~./.*.#.p J A a (.i # [ $ _ t p o %.k i./ D 5 V X ..m k ( 3.h.*+            ",
"            b.; ` 3.k g t f.c F 8 0 O 8 B X F q y X 3./ s 3.a a k {._ j 6 E z t t / t N / B %.y & Y.D.O m ` 9 @+@+              ",
"            f |.+.*.s #.x j m.H (.7 t X 3.z t U k {.a s / s q >.t 0 0 %./ y O 9 / 6.V m M i.G T A 8 j./ H #.,.E.T               ",
"              b.g -.#.>.= !+s.}.#./.(.3.0 ( t ( {._ %.6 3.B / 8 H t 8 3.N _ N ` '.q $.V e q M c c f.%.c e q.B D.                ",
"                f [.~ c ~.T 2 9.H.7 z '.j y c s k F X B t 0 9.s o z l y 6.A / t k ~.e J V O i.F N E 6.l 4.V 0                   ",
"                  A., { H 0 1 - l $.6.P : X c i.0 B 3.9.N ,.6.z 9 F N i.o 6.l 8 0 q.>.l 6.8 ( c F 9.z >+^.J                     ",
"                    b.h P ;./ (.} ` J F 8 #.6 ( /.p i.J s.J 6.>.o q./ i.}.N V B }.<.>.M 9.9 j k %.p q &.z t.                    ",
"                        Z.; Z T # + { 9.e.s z 3 ~.U k C ,.V &.i.e C 8 U 3.G i.X }.q A ( B (.Z U 3.J 4.0 C                       ",
"                            w Q *.'., Z /.b 4./.s ~ *.k e e o t.4.p t t F G 0 p 0 z E _ a _ 0 8 A }.M f.                        ",
"                              |.[.; : D ; ! l q.c 9 U & O 9.i.0 z e s / p =.F 3.X ! D T c y o z c m                             ",
"                                    h g $ ^ 4 j N o O _ B 9.I q.O H z X ~.U c D 6 _ %.F J o ~.S                                 ",
"                                          |+!+[ Y : E { F p Y.q s / a {.a T @.: z *.q F P i                                     ",
"                                              c.1 ).,  .4 Z U ;.s / l 6.9 S { 5 {.L |                                           ",
"                                                    > > h !+; ^ Q i P N % 2 v @                                                 ",
"                                                          |+} w f ).h 2 +. .                                                    ",
"                                                              B.Z.. [.,                                                         ",
"                                                                                                                                ",
"                                                                                                                                "};
